<svg xmlns="http://www.w3.org/2000/svg" xmlns:xlink="http://www.w3.org/1999/xlink" width="3000" zoomAndPan="magnify" viewBox="0 0 2250 749.999995" height="1000" preserveAspectRatio="xMidYMid meet" version="1.0"><defs><g/></defs><g fill="#1f2428" fill-opacity="1"><g transform="translate(622.68233, 394.797415)"><g><path d="M 24.375 0 C 23.457031 0 23 -0.914062 23 -2.75 C 23 -4.59375 23.457031 -5.515625 24.375 -5.515625 C 35.113281 -5.515625 43.164062 -6.359375 48.53125 -8.046875 C 53.894531 -9.734375 57.570312 -12.722656 59.5625 -17.015625 C 61.5625 -21.304688 62.5625 -28.054688 62.5625 -37.265625 L 62.5625 -162.375 C 62.5625 -171.882812 61.488281 -178.785156 59.34375 -183.078125 C 57.195312 -187.367188 53.363281 -189.515625 47.84375 -189.515625 C 42.625 -189.515625 34.800781 -187.367188 24.375 -183.078125 L 23.453125 -182.625 C 22.234375 -182.625 21.316406 -183.390625 20.703125 -184.921875 C 20.085938 -186.453125 20.394531 -187.375 21.625 -187.6875 L 97.0625 -220.796875 L 97.984375 -220.796875 C 98.898438 -220.796875 99.664062 -220.410156 100.28125 -219.640625 C 100.894531 -218.878906 101.203125 -218.191406 101.203125 -217.578125 L 101.203125 -37.265625 C 101.203125 -27.753906 102.046875 -20.851562 103.734375 -16.5625 C 105.421875 -12.269531 108.867188 -9.351562 114.078125 -7.8125 C 119.296875 -6.28125 127.726562 -5.515625 139.375 -5.515625 C 139.988281 -5.515625 140.296875 -4.59375 140.296875 -2.75 C 140.296875 -0.914062 139.988281 0 139.375 0 C 129.257812 0 121.441406 -0.148438 115.921875 -0.453125 L 81.875 -0.921875 L 48.296875 -0.453125 C 42.472656 -0.148438 34.5 0 24.375 0 Z M 24.375 0 "/></g></g></g><g fill="#1f2428" fill-opacity="1"><g transform="translate(831.981159, 394.797415)"><g><path d="M 201.9375 -21.625 C 203.164062 -21.625 203.78125 -18.554688 203.78125 -12.421875 C 203.78125 -9.347656 203.550781 -6.582031 203.09375 -4.125 C 202.632812 -1.675781 202.097656 -0.453125 201.484375 -0.453125 L 168.359375 -1.84375 L 168.359375 61.1875 C 168.359375 64.25 167.132812 66.394531 164.6875 67.625 L 134.3125 82.796875 L 132.015625 83.71875 C 130.796875 83.71875 130.1875 82.492188 130.1875 80.046875 L 130.1875 -2.765625 C 108.71875 -3.378906 68.695312 -3.6875 10.125 -3.6875 C 8.582031 -3.6875 7.503906 -4.296875 6.890625 -5.515625 C 6.285156 -6.742188 6.289062 -7.972656 6.90625 -9.203125 L 161.453125 -220.34375 C 161.765625 -220.957031 162.6875 -221.265625 164.21875 -221.265625 C 166.976562 -221.265625 168.359375 -220.191406 168.359375 -218.046875 L 168.359375 -20.703125 C 175.410156 -20.703125 186.601562 -21.007812 201.9375 -21.625 Z M 35.875 -18.859375 C 63.164062 -18.859375 94.601562 -19.164062 130.1875 -19.78125 L 130.1875 -154.09375 L 33.578125 -22.078125 C 32.347656 -19.929688 33.113281 -18.859375 35.875 -18.859375 Z M 35.875 -18.859375 "/></g></g></g><g fill="#1f2428" fill-opacity="1"><g transform="translate(1103.839579, 394.797415)"><g><path d="M 201.9375 -21.625 C 203.164062 -21.625 203.78125 -18.554688 203.78125 -12.421875 C 203.78125 -9.347656 203.550781 -6.582031 203.09375 -4.125 C 202.632812 -1.675781 202.097656 -0.453125 201.484375 -0.453125 L 168.359375 -1.84375 L 168.359375 61.1875 C 168.359375 64.25 167.132812 66.394531 164.6875 67.625 L 134.3125 82.796875 L 132.015625 83.71875 C 130.796875 83.71875 130.1875 82.492188 130.1875 80.046875 L 130.1875 -2.765625 C 108.71875 -3.378906 68.695312 -3.6875 10.125 -3.6875 C 8.582031 -3.6875 7.503906 -4.296875 6.890625 -5.515625 C 6.285156 -6.742188 6.289062 -7.972656 6.90625 -9.203125 L 161.453125 -220.34375 C 161.765625 -220.957031 162.6875 -221.265625 164.21875 -221.265625 C 166.976562 -221.265625 168.359375 -220.191406 168.359375 -218.046875 L 168.359375 -20.703125 C 175.410156 -20.703125 186.601562 -21.007812 201.9375 -21.625 Z M 35.875 -18.859375 C 63.164062 -18.859375 94.601562 -19.164062 130.1875 -19.78125 L 130.1875 -154.09375 L 33.578125 -22.078125 C 32.347656 -19.929688 33.113281 -18.859375 35.875 -18.859375 Z M 35.875 -18.859375 "/></g></g></g><g fill="#1f2428" fill-opacity="1"><g transform="translate(1375.698043, 394.797415)"><g><path d="M 126.5 5.984375 C 105.34375 5.984375 86.484375 1.15625 69.921875 -8.5 C 53.359375 -18.164062 40.398438 -31.660156 31.046875 -48.984375 C 21.691406 -66.316406 17.015625 -86.175781 17.015625 -108.5625 C 17.015625 -130.332031 21.691406 -149.648438 31.046875 -166.515625 C 40.398438 -183.378906 53.429688 -196.488281 70.140625 -205.84375 C 86.859375 -215.195312 105.796875 -219.875 126.953125 -219.875 C 147.804688 -219.875 166.4375 -215.117188 182.84375 -205.609375 C 199.25 -196.109375 211.972656 -182.847656 221.015625 -165.828125 C 230.066406 -148.804688 234.59375 -129.257812 234.59375 -107.1875 C 234.59375 -85.101562 229.992188 -65.472656 220.796875 -48.296875 C 211.597656 -31.128906 198.796875 -17.789062 182.390625 -8.28125 C 165.984375 1.226562 147.351562 5.984375 126.5 5.984375 Z M 132.015625 -2.765625 C 150.421875 -2.765625 164.222656 -11.503906 173.421875 -28.984375 C 182.617188 -46.460938 187.21875 -70.6875 187.21875 -101.65625 C 187.21875 -125.882812 184.226562 -146.28125 178.25 -162.84375 C 172.269531 -179.40625 164.375 -191.671875 154.5625 -199.640625 C 144.75 -207.609375 133.863281 -211.59375 121.90625 -211.59375 C 103.5 -211.59375 89.082031 -202.394531 78.65625 -184 C 68.226562 -165.601562 63.015625 -141.53125 63.015625 -111.78125 C 63.015625 -90.625 65.851562 -71.835938 71.53125 -55.421875 C 77.207031 -39.015625 85.253906 -26.132812 95.671875 -16.78125 C 106.097656 -7.4375 118.210938 -2.765625 132.015625 -2.765625 Z M 132.015625 -2.765625 "/></g></g></g><g fill="#463a32" fill-opacity="1"><g transform="translate(301.150892, 635.522149)"><g><path d="M 2.53125 0 L 33.015625 -83.671875 L 45.140625 -83.671875 L 75.859375 0 L 64.75 0 L 47.0625 -49.8125 C 45.9375 -52.957031 44.648438 -56.785156 43.203125 -61.296875 C 41.765625 -65.804688 40.015625 -71.597656 37.953125 -78.671875 L 40.15625 -78.671875 C 38.09375 -71.554688 36.320312 -65.707031 34.84375 -61.125 C 33.363281 -56.539062 32.117188 -52.769531 31.109375 -49.8125 L 13.703125 0 Z M 17.96875 -23.359375 L 17.96875 -32.625 L 60.46875 -32.625 L 60.46875 -23.359375 Z M 17.96875 -23.359375 "/></g></g></g><g fill="#463a32" fill-opacity="1"><g transform="translate(428.642425, 635.522149)"><g><path d="M 35.765625 0 L 15.546875 0 L 15.546875 -9.328125 L 35.09375 -9.328125 C 41.90625 -9.328125 47.554688 -10.632812 52.046875 -13.25 C 56.546875 -15.875 59.898438 -19.628906 62.109375 -24.515625 C 64.316406 -29.398438 65.421875 -35.226562 65.421875 -42 C 65.421875 -48.695312 64.320312 -54.460938 62.125 -59.296875 C 59.9375 -64.128906 56.679688 -67.84375 52.359375 -70.4375 C 48.035156 -73.039062 42.617188 -74.34375 36.109375 -74.34375 L 15.109375 -74.34375 L 15.109375 -83.671875 L 36.84375 -83.671875 C 45 -83.671875 51.96875 -82.003906 57.75 -78.671875 C 63.53125 -75.335938 67.960938 -70.550781 71.046875 -64.3125 C 74.140625 -58.082031 75.6875 -50.644531 75.6875 -42 C 75.6875 -33.28125 74.132812 -25.785156 71.03125 -19.515625 C 67.925781 -13.242188 63.394531 -8.421875 57.4375 -5.046875 C 51.488281 -1.679688 44.265625 0 35.765625 0 Z M 20.265625 -83.671875 L 20.265625 0 L 9.71875 0 L 9.71875 -83.671875 Z M 20.265625 -83.671875 "/></g></g></g><g fill="#463a32" fill-opacity="1"><g transform="translate(556.021602, 635.522149)"><g><path d="M 33.296875 0 L 2.53125 -83.671875 L 13.640625 -83.671875 L 31.390625 -33.859375 C 32.398438 -31.054688 33.660156 -27.296875 35.171875 -22.578125 C 36.691406 -17.859375 38.5 -12.015625 40.59375 -5.046875 L 38.359375 -5.046875 C 40.410156 -12.128906 42.1875 -18 43.6875 -22.65625 C 45.1875 -27.320312 46.421875 -31.054688 47.390625 -33.859375 L 64.75 -83.671875 L 75.859375 -83.671875 L 45.421875 0 Z M 33.296875 0 "/></g></g></g><g fill="#463a32" fill-opacity="1"><g transform="translate(683.513151, 635.522149)"><g><path d="M 20.265625 -83.671875 L 20.265625 0 L 9.71875 0 L 9.71875 -83.671875 Z M 20.265625 -83.671875 "/></g></g></g><g fill="#463a32" fill-opacity="1"><g transform="translate(762.603014, 635.522149)"><g><path d="M 36.671875 1.453125 C 30.566406 1.453125 25.257812 0.4375 20.75 -1.59375 C 16.238281 -3.632812 12.726562 -6.476562 10.21875 -10.125 C 7.707031 -13.78125 6.320312 -18.078125 6.0625 -23.015625 L 16.84375 -23.015625 C 17.070312 -19.691406 18.082031 -16.914062 19.875 -14.6875 C 21.675781 -12.457031 24.046875 -10.789062 26.984375 -9.6875 C 29.921875 -8.582031 33.148438 -8.03125 36.671875 -8.03125 C 40.523438 -8.03125 43.957031 -8.644531 46.96875 -9.875 C 49.976562 -11.113281 52.351562 -12.847656 54.09375 -15.078125 C 55.84375 -17.304688 56.71875 -19.898438 56.71875 -22.859375 C 56.71875 -25.472656 56.003906 -27.628906 54.578125 -29.328125 C 53.160156 -31.035156 51.207031 -32.453125 48.71875 -33.578125 C 46.226562 -34.703125 43.375 -35.695312 40.15625 -36.5625 L 30.203125 -39.3125 C 23.054688 -41.257812 17.609375 -44 13.859375 -47.53125 C 10.117188 -51.070312 8.25 -55.628906 8.25 -61.203125 C 8.25 -65.960938 9.503906 -70.109375 12.015625 -73.640625 C 14.523438 -77.179688 17.953125 -79.929688 22.296875 -81.890625 C 26.640625 -83.859375 31.539062 -84.84375 37 -84.84375 C 42.582031 -84.84375 47.5 -83.847656 51.75 -81.859375 C 56 -79.878906 59.335938 -77.148438 61.765625 -73.671875 C 64.203125 -70.191406 65.492188 -66.222656 65.640625 -61.765625 L 55.3125 -61.765625 C 54.863281 -66.109375 52.9375 -69.476562 49.53125 -71.875 C 46.125 -74.269531 41.835938 -75.46875 36.671875 -75.46875 C 33.078125 -75.46875 29.910156 -74.867188 27.171875 -73.671875 C 24.441406 -72.472656 22.316406 -70.84375 20.796875 -68.78125 C 19.285156 -66.726562 18.53125 -64.375 18.53125 -61.71875 C 18.53125 -58.976562 19.363281 -56.738281 21.03125 -55 C 22.695312 -53.257812 24.773438 -51.863281 27.265625 -50.8125 C 29.753906 -49.769531 32.234375 -48.910156 34.703125 -48.234375 L 43.296875 -45.9375 C 45.953125 -45.257812 48.664062 -44.347656 51.4375 -43.203125 C 54.207031 -42.066406 56.769531 -40.617188 59.125 -38.859375 C 61.488281 -37.097656 63.398438 -34.90625 64.859375 -32.28125 C 66.316406 -29.664062 67.046875 -26.523438 67.046875 -22.859375 C 67.046875 -18.210938 65.835938 -14.054688 63.421875 -10.390625 C 61.003906 -6.722656 57.53125 -3.832031 53 -1.71875 C 48.476562 0.394531 43.035156 1.453125 36.671875 1.453125 Z M 36.671875 1.453125 "/></g></g></g><g fill="#463a32" fill-opacity="1"><g transform="translate(884.816387, 635.522149)"><g><path d="M 43.796875 1.171875 C 36.609375 1.171875 30.195312 -0.582031 24.5625 -4.09375 C 18.925781 -7.613281 14.5 -12.59375 11.28125 -19.03125 C 8.0625 -25.46875 6.453125 -33.050781 6.453125 -41.78125 C 6.453125 -50.539062 8.0625 -58.140625 11.28125 -64.578125 C 14.5 -71.015625 18.925781 -76 24.5625 -79.53125 C 30.195312 -83.070312 36.609375 -84.84375 43.796875 -84.84375 C 51.023438 -84.84375 57.4375 -83.070312 63.03125 -79.53125 C 68.625 -76 73.03125 -71.015625 76.25 -64.578125 C 79.46875 -58.140625 81.078125 -50.539062 81.078125 -41.78125 C 81.078125 -33.050781 79.46875 -25.46875 76.25 -19.03125 C 73.03125 -12.59375 68.625 -7.613281 63.03125 -4.09375 C 57.4375 -0.582031 51.023438 1.171875 43.796875 1.171875 Z M 43.796875 -8.59375 C 48.816406 -8.59375 53.359375 -9.863281 57.421875 -12.40625 C 61.484375 -14.957031 64.71875 -18.703125 67.125 -23.640625 C 69.539062 -28.578125 70.75 -34.625 70.75 -41.78125 C 70.75 -48.96875 69.539062 -55.039062 67.125 -60 C 64.71875 -64.957031 61.484375 -68.707031 57.421875 -71.25 C 53.359375 -73.800781 48.816406 -75.078125 43.796875 -75.078125 C 38.785156 -75.078125 34.238281 -73.796875 30.15625 -71.234375 C 26.070312 -68.671875 22.820312 -64.914062 20.40625 -59.96875 C 18 -55.03125 16.796875 -48.96875 16.796875 -41.78125 C 16.796875 -34.625 18 -28.582031 20.40625 -23.65625 C 22.820312 -18.738281 26.070312 -15 30.15625 -12.4375 C 34.238281 -9.875 38.785156 -8.59375 43.796875 -8.59375 Z M 43.796875 -8.59375 "/></g></g></g><g fill="#463a32" fill-opacity="1"><g transform="translate(1021.460485, 635.522149)"><g><path d="M 9.71875 0 L 9.71875 -83.671875 L 38.859375 -83.671875 C 45.222656 -83.671875 50.519531 -82.570312 54.75 -80.375 C 58.976562 -78.1875 62.140625 -75.15625 64.234375 -71.28125 C 66.335938 -67.40625 67.390625 -62.960938 67.390625 -57.953125 C 67.390625 -52.898438 66.320312 -48.460938 64.1875 -44.640625 C 62.050781 -40.816406 58.867188 -37.847656 54.640625 -35.734375 C 50.410156 -33.617188 45.113281 -32.5625 38.75 -32.5625 L 15.609375 -32.5625 L 15.609375 -41.953125 L 38.46875 -41.953125 C 42.769531 -41.953125 46.269531 -42.597656 48.96875 -43.890625 C 51.664062 -45.179688 53.65625 -47.023438 54.9375 -49.421875 C 56.226562 -51.816406 56.875 -54.660156 56.875 -57.953125 C 56.875 -61.285156 56.226562 -64.175781 54.9375 -66.625 C 53.65625 -69.070312 51.65625 -70.976562 48.9375 -72.34375 C 46.21875 -73.71875 42.691406 -74.40625 38.359375 -74.40625 L 20.265625 -74.40625 L 20.265625 0 Z M 57.890625 0 L 37.671875 -37.671875 L 49.578125 -37.671875 L 70.140625 0 Z M 57.890625 0 "/></g></g></g><g fill="#463a32" fill-opacity="1"><g transform="translate(1141.54013, 635.522149)"><g><path d="M 33.296875 0 L 33.296875 -34.3125 L 2.53125 -83.671875 L 14.71875 -83.671875 L 31.328125 -56.65625 C 33.160156 -53.695312 34.816406 -50.84375 36.296875 -48.09375 C 37.773438 -45.34375 39.285156 -42.039062 40.828125 -38.1875 L 36.5625 -38.1875 C 38.09375 -42.113281 39.597656 -45.460938 41.078125 -48.234375 C 42.554688 -51.003906 44.15625 -53.8125 45.875 -56.65625 L 62.4375 -83.671875 L 74.625 -83.671875 L 43.859375 -34.3125 L 43.859375 0 Z M 33.296875 0 "/></g></g></g><g fill="#463a32" fill-opacity="1"><g transform="translate(1267.796376, 635.522149)"><g/></g></g><g fill="#463a32" fill-opacity="1"><g transform="translate(1348.458451, 635.522149)"><g><path d="M 44.078125 1.171875 C 36.628906 1.171875 30.085938 -0.59375 24.453125 -4.125 C 18.816406 -7.664062 14.40625 -12.644531 11.21875 -19.0625 C 8.039062 -25.476562 6.453125 -33.050781 6.453125 -41.78125 C 6.453125 -50.570312 8.035156 -58.175781 11.203125 -64.59375 C 14.367188 -71.019531 18.75 -76 24.34375 -79.53125 C 29.9375 -83.070312 36.347656 -84.84375 43.578125 -84.84375 C 47.992188 -84.84375 52.128906 -84.175781 55.984375 -82.84375 C 59.835938 -81.519531 63.28125 -79.628906 66.3125 -77.171875 C 69.34375 -74.722656 71.867188 -71.8125 73.890625 -68.4375 C 75.910156 -65.070312 77.28125 -61.351562 78 -57.28125 L 67.21875 -57.28125 C 66.394531 -59.96875 65.257812 -62.40625 63.8125 -64.59375 C 62.375 -66.789062 60.648438 -68.664062 58.640625 -70.21875 C 56.640625 -71.769531 54.375 -72.96875 51.84375 -73.8125 C 49.320312 -74.65625 46.566406 -75.078125 43.578125 -75.078125 C 38.523438 -75.078125 33.972656 -73.773438 29.921875 -71.171875 C 25.878906 -68.566406 22.679688 -64.785156 20.328125 -59.828125 C 17.972656 -54.867188 16.796875 -48.851562 16.796875 -41.78125 C 16.796875 -34.78125 17.984375 -28.804688 20.359375 -23.859375 C 22.734375 -18.921875 25.96875 -15.140625 30.0625 -12.515625 C 34.164062 -9.898438 38.835938 -8.59375 44.078125 -8.59375 C 48.796875 -8.59375 52.96875 -9.601562 56.59375 -11.625 C 60.226562 -13.644531 63.082031 -16.507812 65.15625 -20.21875 C 67.238281 -23.925781 68.28125 -28.285156 68.28125 -33.296875 L 71.484375 -32.734375 L 46.546875 -32.734375 L 46.546875 -42 L 78.609375 -42 L 78.609375 -32.90625 C 78.609375 -26.050781 77.109375 -20.066406 74.109375 -14.953125 C 71.117188 -9.847656 67.03125 -5.882812 61.84375 -3.0625 C 56.664062 -0.238281 50.742188 1.171875 44.078125 1.171875 Z M 44.078125 1.171875 "/></g></g></g><g fill="#463a32" fill-opacity="1"><g transform="translate(1482.968822, 635.522149)"><g><path d="M 9.71875 0 L 9.71875 -83.671875 L 38.859375 -83.671875 C 45.222656 -83.671875 50.519531 -82.570312 54.75 -80.375 C 58.976562 -78.1875 62.140625 -75.15625 64.234375 -71.28125 C 66.335938 -67.40625 67.390625 -62.960938 67.390625 -57.953125 C 67.390625 -52.898438 66.320312 -48.460938 64.1875 -44.640625 C 62.050781 -40.816406 58.867188 -37.847656 54.640625 -35.734375 C 50.410156 -33.617188 45.113281 -32.5625 38.75 -32.5625 L 15.609375 -32.5625 L 15.609375 -41.953125 L 38.46875 -41.953125 C 42.769531 -41.953125 46.269531 -42.597656 48.96875 -43.890625 C 51.664062 -45.179688 53.65625 -47.023438 54.9375 -49.421875 C 56.226562 -51.816406 56.875 -54.660156 56.875 -57.953125 C 56.875 -61.285156 56.226562 -64.175781 54.9375 -66.625 C 53.65625 -69.070312 51.65625 -70.976562 48.9375 -72.34375 C 46.21875 -73.71875 42.691406 -74.40625 38.359375 -74.40625 L 20.265625 -74.40625 L 20.265625 0 Z M 57.890625 0 L 37.671875 -37.671875 L 49.578125 -37.671875 L 70.140625 0 Z M 57.890625 0 "/></g></g></g><g fill="#463a32" fill-opacity="1"><g transform="translate(1605.799809, 635.522149)"><g><path d="M 43.796875 1.171875 C 36.609375 1.171875 30.195312 -0.582031 24.5625 -4.09375 C 18.925781 -7.613281 14.5 -12.59375 11.28125 -19.03125 C 8.0625 -25.46875 6.453125 -33.050781 6.453125 -41.78125 C 6.453125 -50.539062 8.0625 -58.140625 11.28125 -64.578125 C 14.5 -71.015625 18.925781 -76 24.5625 -79.53125 C 30.195312 -83.070312 36.609375 -84.84375 43.796875 -84.84375 C 51.023438 -84.84375 57.4375 -83.070312 63.03125 -79.53125 C 68.625 -76 73.03125 -71.015625 76.25 -64.578125 C 79.46875 -58.140625 81.078125 -50.539062 81.078125 -41.78125 C 81.078125 -33.050781 79.46875 -25.46875 76.25 -19.03125 C 73.03125 -12.59375 68.625 -7.613281 63.03125 -4.09375 C 57.4375 -0.582031 51.023438 1.171875 43.796875 1.171875 Z M 43.796875 -8.59375 C 48.816406 -8.59375 53.359375 -9.863281 57.421875 -12.40625 C 61.484375 -14.957031 64.71875 -18.703125 67.125 -23.640625 C 69.539062 -28.578125 70.75 -34.625 70.75 -41.78125 C 70.75 -48.96875 69.539062 -55.039062 67.125 -60 C 64.71875 -64.957031 61.484375 -68.707031 57.421875 -71.25 C 53.359375 -73.800781 48.816406 -75.078125 43.796875 -75.078125 C 38.785156 -75.078125 34.238281 -73.796875 30.15625 -71.234375 C 26.070312 -68.671875 22.820312 -64.914062 20.40625 -59.96875 C 18 -55.03125 16.796875 -48.96875 16.796875 -41.78125 C 16.796875 -34.625 18 -28.582031 20.40625 -23.65625 C 22.820312 -18.738281 26.070312 -15 30.15625 -12.4375 C 34.238281 -9.875 38.785156 -8.59375 43.796875 -8.59375 Z M 43.796875 -8.59375 "/></g></g></g><g fill="#463a32" fill-opacity="1"><g transform="translate(1742.443908, 635.522149)"><g><path d="M 42.28125 1.34375 C 35.726562 1.34375 29.988281 0.0507812 25.0625 -2.53125 C 20.144531 -5.113281 16.335938 -8.648438 13.640625 -13.140625 C 10.953125 -17.628906 9.609375 -22.738281 9.609375 -28.46875 L 9.609375 -83.671875 L 20.15625 -83.671875 L 20.15625 -29.3125 C 20.15625 -25.269531 21.046875 -21.675781 22.828125 -18.53125 C 24.609375 -15.382812 27.15625 -12.910156 30.46875 -11.109375 C 33.78125 -9.316406 37.738281 -8.421875 42.34375 -8.421875 C 46.90625 -8.421875 50.832031 -9.328125 54.125 -11.140625 C 57.425781 -12.960938 59.953125 -15.4375 61.703125 -18.5625 C 63.460938 -21.6875 64.34375 -25.269531 64.34375 -29.3125 L 64.34375 -83.671875 L 74.90625 -83.671875 L 74.90625 -28.46875 C 74.90625 -22.738281 73.554688 -17.628906 70.859375 -13.140625 C 68.171875 -8.648438 64.382812 -5.113281 59.5 -2.53125 C 54.613281 0.0507812 48.875 1.34375 42.28125 1.34375 Z M 42.28125 1.34375 "/></g></g></g><g fill="#463a32" fill-opacity="1"><g transform="translate(1876.055779, 635.522149)"><g><path d="M 9.71875 0 L 9.71875 -83.671875 L 38.640625 -83.671875 C 44.992188 -83.671875 50.285156 -82.519531 54.515625 -80.21875 C 58.753906 -77.914062 61.921875 -74.78125 64.015625 -70.8125 C 66.109375 -66.84375 67.15625 -62.347656 67.15625 -57.328125 C 67.15625 -52.316406 66.097656 -47.804688 63.984375 -43.796875 C 61.867188 -39.796875 58.695312 -36.632812 54.46875 -34.3125 C 50.238281 -31.988281 44.941406 -30.828125 38.578125 -30.828125 L 17.40625 -30.828125 L 17.40625 -40.15625 L 38.234375 -40.15625 C 42.546875 -40.15625 46.054688 -40.882812 48.765625 -42.34375 C 51.484375 -43.800781 53.476562 -45.828125 54.75 -48.421875 C 56.019531 -51.023438 56.65625 -53.992188 56.65625 -57.328125 C 56.65625 -60.660156 56.019531 -63.609375 54.75 -66.171875 C 53.476562 -68.734375 51.472656 -70.742188 48.734375 -72.203125 C 46.003906 -73.671875 42.46875 -74.40625 38.125 -74.40625 L 20.265625 -74.40625 L 20.265625 0 Z M 9.71875 0 "/></g></g></g></svg>