<svg xmlns="http://www.w3.org/2000/svg" xmlns:xlink="http://www.w3.org/1999/xlink" width="1000" zoomAndPan="magnify" viewBox="0 0 750 749.999995" height="1000" preserveAspectRatio="xMidYMid meet" version="1.0"><defs><g/><clipPath id="0a21f31ea5"><rect x="0" width="746" y="0" height="411"/></clipPath></defs><g transform="matrix(1, 0, 0, 1, 4, 116)"><g clip-path="url(#0a21f31ea5)"><g fill="#ffffff" fill-opacity="1"><g transform="translate(0.707327, 312.699278)"><g><path d="M 17.96875 0 C 17.289062 0 16.953125 -0.675781 16.953125 -2.03125 C 16.953125 -3.382812 17.289062 -4.0625 17.96875 -4.0625 C 25.882812 -4.0625 31.816406 -4.679688 35.765625 -5.921875 C 39.722656 -7.171875 42.4375 -9.378906 43.90625 -12.546875 C 45.375 -15.710938 46.109375 -20.6875 46.109375 -27.46875 L 46.109375 -119.703125 C 46.109375 -126.710938 45.316406 -131.796875 43.734375 -134.953125 C 42.160156 -138.117188 39.335938 -139.703125 35.265625 -139.703125 C 31.421875 -139.703125 25.65625 -138.117188 17.96875 -134.953125 L 17.296875 -134.625 C 16.390625 -134.625 15.707031 -135.1875 15.25 -136.3125 C 14.800781 -137.445312 15.03125 -138.125 15.9375 -138.34375 L 71.546875 -162.765625 L 72.234375 -162.765625 C 72.910156 -162.765625 73.472656 -162.476562 73.921875 -161.90625 C 74.367188 -161.34375 74.59375 -160.835938 74.59375 -160.390625 L 74.59375 -27.46875 C 74.59375 -20.457031 75.210938 -15.367188 76.453125 -12.203125 C 77.703125 -9.035156 80.25 -6.882812 84.09375 -5.75 C 87.9375 -4.625 94.15625 -4.0625 102.75 -4.0625 C 103.195312 -4.0625 103.421875 -3.382812 103.421875 -2.03125 C 103.421875 -0.675781 103.195312 0 102.75 0 C 95.289062 0 89.523438 -0.113281 85.453125 -0.34375 L 60.359375 -0.671875 L 35.609375 -0.34375 C 31.304688 -0.113281 25.425781 0 17.96875 0 Z M 17.96875 0 "/></g></g></g><g fill="#ffffff" fill-opacity="1"><g transform="translate(154.993413, 312.699278)"><g><path d="M 148.859375 -15.9375 C 149.765625 -15.9375 150.21875 -13.675781 150.21875 -9.15625 C 150.21875 -6.894531 150.046875 -4.859375 149.703125 -3.046875 C 149.367188 -1.242188 148.972656 -0.34375 148.515625 -0.34375 L 124.109375 -1.359375 L 124.109375 45.09375 C 124.109375 47.351562 123.203125 48.9375 121.390625 49.84375 L 99.015625 61.03125 L 97.3125 61.71875 C 96.414062 61.71875 95.96875 60.8125 95.96875 59 L 95.96875 -2.03125 C 80.144531 -2.488281 50.640625 -2.71875 7.453125 -2.71875 C 6.328125 -2.71875 5.535156 -3.164062 5.078125 -4.0625 C 4.628906 -4.96875 4.632812 -5.875 5.09375 -6.78125 L 119.015625 -162.421875 C 119.242188 -162.878906 119.925781 -163.109375 121.0625 -163.109375 C 123.09375 -163.109375 124.109375 -162.316406 124.109375 -160.734375 L 124.109375 -15.265625 C 129.304688 -15.265625 137.554688 -15.488281 148.859375 -15.9375 Z M 26.453125 -13.90625 C 46.566406 -13.90625 69.738281 -14.128906 95.96875 -14.578125 L 95.96875 -113.59375 L 24.75 -16.28125 C 23.84375 -14.695312 24.410156 -13.90625 26.453125 -13.90625 Z M 26.453125 -13.90625 "/></g></g></g><g fill="#ffffff" fill-opacity="1"><g transform="translate(355.395634, 312.699278)"><g><path d="M 148.859375 -15.9375 C 149.765625 -15.9375 150.21875 -13.675781 150.21875 -9.15625 C 150.21875 -6.894531 150.046875 -4.859375 149.703125 -3.046875 C 149.367188 -1.242188 148.972656 -0.34375 148.515625 -0.34375 L 124.109375 -1.359375 L 124.109375 45.09375 C 124.109375 47.351562 123.203125 48.9375 121.390625 49.84375 L 99.015625 61.03125 L 97.3125 61.71875 C 96.414062 61.71875 95.96875 60.8125 95.96875 59 L 95.96875 -2.03125 C 80.144531 -2.488281 50.640625 -2.71875 7.453125 -2.71875 C 6.328125 -2.71875 5.535156 -3.164062 5.078125 -4.0625 C 4.628906 -4.96875 4.632812 -5.875 5.09375 -6.78125 L 119.015625 -162.421875 C 119.242188 -162.878906 119.925781 -163.109375 121.0625 -163.109375 C 123.09375 -163.109375 124.109375 -162.316406 124.109375 -160.734375 L 124.109375 -15.265625 C 129.304688 -15.265625 137.554688 -15.488281 148.859375 -15.9375 Z M 26.453125 -13.90625 C 46.566406 -13.90625 69.738281 -14.128906 95.96875 -14.578125 L 95.96875 -113.59375 L 24.75 -16.28125 C 23.84375 -14.695312 24.410156 -13.90625 26.453125 -13.90625 Z M 26.453125 -13.90625 "/></g></g></g><g fill="#ffffff" fill-opacity="1"><g transform="translate(555.797872, 312.699278)"><g><path d="M 93.25 4.40625 C 77.65625 4.40625 63.753906 0.847656 51.546875 -6.265625 C 39.335938 -13.390625 29.785156 -23.335938 22.890625 -36.109375 C 15.992188 -48.878906 12.546875 -63.519531 12.546875 -80.03125 C 12.546875 -96.082031 15.992188 -110.320312 22.890625 -122.75 C 29.785156 -135.1875 39.390625 -144.851562 51.703125 -151.75 C 64.023438 -158.644531 77.988281 -162.09375 93.59375 -162.09375 C 108.957031 -162.09375 122.6875 -158.585938 134.78125 -151.578125 C 146.882812 -144.566406 156.269531 -134.785156 162.9375 -122.234375 C 169.601562 -109.691406 172.9375 -95.285156 172.9375 -79.015625 C 172.9375 -62.734375 169.546875 -48.257812 162.765625 -35.59375 C 155.984375 -22.9375 146.546875 -13.101562 134.453125 -6.09375 C 122.359375 0.90625 108.625 4.40625 93.25 4.40625 Z M 97.3125 -2.03125 C 110.882812 -2.03125 121.0625 -8.472656 127.84375 -21.359375 C 134.625 -34.242188 138.015625 -52.101562 138.015625 -74.9375 C 138.015625 -92.800781 135.804688 -107.832031 131.390625 -120.03125 C 126.984375 -132.238281 121.160156 -141.28125 113.921875 -147.15625 C 106.691406 -153.039062 98.671875 -155.984375 89.859375 -155.984375 C 76.296875 -155.984375 65.671875 -149.203125 57.984375 -135.640625 C 50.296875 -122.078125 46.453125 -104.332031 46.453125 -82.40625 C 46.453125 -66.800781 48.539062 -52.953125 52.71875 -40.859375 C 56.90625 -28.765625 62.84375 -19.269531 70.53125 -12.375 C 78.21875 -5.476562 87.144531 -2.03125 97.3125 -2.03125 Z M 97.3125 -2.03125 "/></g></g></g></g></g></svg>